name C:\Users\antoi\Documents\MyRepositories\upper-imu-dc\Results\main_tracking\Case_76\FLX01_linearAccelerations_bodyFrame.mot
datacolumns 4
datarows 94
range 0.51000000 1.44000000
endheader 
time	radius_imu_x	radius_imu_y	radius_imu_z	
          0.51000000	         -1.06463513	          9.67355142	          1.65133424	
          0.52000000	         -0.98503742	          9.67546081	          1.69566210	
          0.53000000	         -0.95647525	          9.67645219	          1.77375162	
          0.54000000	         -0.93931851	          9.68166446	          1.87186225	
          0.55000000	         -0.92405280	          9.68813514	          1.98281581	
          0.56000000	         -0.90861189	          9.69581481	          2.10277743	
          0.57000000	         -0.89397277	          9.70432019	          2.23052758	
          0.58000000	         -0.88169266	          9.71358671	          2.36517230	
          0.59000000	         -0.87275190	          9.72358001	          2.50585484	
          0.60000000	         -0.86744132	          9.73429389	          2.65173663	
          0.61000000	         -0.86537362	          9.74580027	          2.80180778	
          0.62000000	         -0.86561441	          9.75820737	          2.95505171	
          0.63000000	         -0.86652972	          9.77169332	          3.11034295	
          0.64000000	         -0.86597146	          9.78644413	          3.26657094	
          0.65000000	         -0.86165660	          9.80254513	          3.42267399	
          0.66000000	         -0.85138355	          9.82001151	          3.57756544	
          0.67000000	         -0.83312276	          9.83876357	          3.73003781	
          0.68000000	         -0.80504366	          9.85863874	          3.87874958	
          0.69000000	         -0.76550857	          9.87942157	          4.02224535	
          0.70000000	         -0.71308823	          9.90085064	          4.15900101	
          0.71000000	         -0.64666291	          9.92264196	          4.28748630	
          0.72000000	         -0.56552849	          9.94449617	          4.40618812	
          0.73000000	         -0.46957806	          9.96608665	          4.51370771	
          0.74000000	         -0.35971855	          9.98712607	          4.60930492	
          0.75000000	         -0.23735749	         10.00727750	          4.69275483	
          0.76000000	         -0.10377793	         10.02603914	          4.76244438	
          0.77000000	          0.03682659	         10.04328684	          4.82161392	
          0.78000000	          0.18275412	         10.05854480	          4.86993632	
          0.79000000	          0.32940483	         10.07130210	          4.90761854	
          0.80000000	          0.47182332	         10.08256846	          4.93789530	
          0.81000000	          0.59729313	         10.09057368	          4.98877371	
          0.82000000	          0.62088368	         10.10961248	          5.02211040	
          0.83000000	          0.62490392	         10.12371285	          5.08899345	
          0.84000000	          0.61946868	         10.13797478	          5.15099081	
          0.85000000	          0.59862063	         10.15045938	          5.21110956	
          0.86000000	          0.56924908	         10.16098649	          5.27124962	
          0.87000000	          0.53206796	         10.16955165	          5.33700479	
          0.88000000	          0.48960951	         10.17614616	          5.40979501	
          0.89000000	          0.45249932	         10.17862744	          5.47404738	
          0.90000000	          0.41066218	         10.17841972	          5.54385247	
          0.91000000	          0.37065847	         10.17397355	          5.61205599	
          0.92000000	          0.33707282	         10.16425468	          5.67619959	
          0.93000000	          0.30811935	         10.14907120	          5.73932719	
          0.94000000	          0.28716361	         10.12741208	          5.79909067	
          0.95000000	          0.27441082	         10.09900098	          5.85856034	
          0.96000000	          0.27035730	         10.06352917	          5.91819416	
          0.97000000	          0.27713644	         10.02051812	          5.97659530	
          0.98000000	          0.29519085	          9.96987042	          6.03448645	
          0.99000000	          0.32419972	          9.91168081	          6.09279764	
          1.00000000	          0.36362992	          9.84608743	          6.15129966	
          1.01000000	          0.41237133	          9.77321361	          6.20861979	
          1.02000000	          0.46751467	          9.69344375	          6.26552909	
          1.03000000	          0.52606418	          9.60703699	          6.32147106	
          1.04000000	          0.58492325	          9.51417765	          6.37573057	
          1.05000000	          0.64077585	          9.41508079	          6.42832093	
          1.06000000	          0.69049467	          9.30999469	          6.47979431	
          1.07000000	          0.73174644	          9.19912377	          6.53048000	
          1.08000000	          0.76300864	          9.08263073	          6.58036600	
          1.09000000	          0.78314585	          8.96076648	          6.63004153	
          1.10000000	          0.79144694	          8.83383363	          6.68031649	
          1.11000000	          0.78814496	          8.70196395	          6.73077853	
          1.12000000	          0.77359139	          8.56527761	          6.78137949	
          1.13000000	          0.74828700	          8.42386401	          6.83236747	
          1.14000000	          0.71297661	          8.27775347	          6.88397205	
          1.15000000	          0.66873154	          8.12693551	          6.93642570	
          1.16000000	          0.61689322	          7.97140336	          6.98998546	
          1.17000000	          0.55897529	          7.81120091	          7.04487321	
          1.18000000	          0.49657405	          7.64646469	          7.10119437	
          1.19000000	          0.43128897	          7.47745179	          7.15886069	
          1.20000000	          0.36459944	          7.30455584	          7.21758538	
          1.21000000	          0.29772079	          7.12830631	          7.27696887	
          1.22000000	          0.23146493	          6.94933253	          7.33653865	
          1.23000000	          0.16611685	          6.76829738	          7.39574336	
          1.24000000	          0.10150750	          6.58582278	          7.45399106	
          1.25000000	          0.03718412	          6.40244486	          7.51074708	
          1.26000000	         -0.02757922	          6.21861260	          7.56562470	
          1.27000000	         -0.09348587	          6.03469268	          7.61838080	
          1.28000000	         -0.16086471	          5.85094688	          7.66857843	
          1.29000000	         -0.22978652	          5.66764088	          7.71612310	
          1.30000000	         -0.29823953	          5.48488903	          7.76033727	
          1.31000000	         -0.36949621	          5.30314645	          7.80143604	
          1.32000000	         -0.43881988	          5.12267106	          7.84110242	
          1.33000000	         -0.50855406	          4.94372104	          7.87811786	
          1.34000000	         -0.57766426	          4.76651200	          7.91313636	
          1.35000000	         -0.64541986	          4.59136861	          7.94753492	
          1.36000000	         -0.71218883	          4.41856442	          7.98221541	
          1.37000000	         -0.77790313	          4.24831652	          8.01815234	
          1.38000000	         -0.84237274	          4.08079794	          8.05633802	
          1.39000000	         -0.90530069	          3.91614044	          8.09772296	
          1.40000000	         -0.96617573	          3.75443642	          8.14315099	
          1.41000000	         -1.02442158	          3.59573522	          8.19317699	
          1.42000000	         -1.07976093	          3.44000862	          8.24771266	
          1.43000000	         -1.13166558	          3.28716691	          8.30639873	
          1.44000000	         -1.17978532	          3.13713413	          8.36904343	
